<?xml version="1.0" encoding="utf-8"?>
<!-- Generator: Adobe Illustrator 24.0.0, SVG Export Plug-In . SVG Version: 6.00 Build 0)  -->
<svg version="1.1" id="Layer_1" xmlns="http://www.w3.org/2000/svg" xmlns:xlink="http://www.w3.org/1999/xlink" x="0px" y="0px"
	 viewBox="0 0 841.89 595.28" style="enable-background:new 0 0 841.89 595.28;" xml:space="preserve">
<style type="text/css">
	.st0{fill:url(#SVGID_1_);}
</style>
<linearGradient id="SVGID_1_" gradientUnits="userSpaceOnUse" x1="412.5502" y1="411.517" x2="424.9373" y2="36.0331">
	<stop  offset="0" style="stop-color:#581112"/>
	<stop  offset="0.063" style="stop-color:#671719"/>
	<stop  offset="0.1749" style="stop-color:#801D21"/>
	<stop  offset="0.2953" style="stop-color:#962227"/>
	<stop  offset="0.4255" style="stop-color:#A8242C"/>
	<stop  offset="0.57" style="stop-color:#B4252E"/>
	<stop  offset="0.7402" style="stop-color:#BC2530"/>
	<stop  offset="1" style="stop-color:#BE2530"/>
</linearGradient>
<path class="st0" d="M425.6,327.1c11.65-16.89,23.31-33.78,34.96-50.66c6.78-9.83,14.16-20.15,25.18-24.75
	c7.67-3.2,16.23-3.23,24.53-3.22c30.55,0.06,61.1,0.12,91.65,0.18c3.06,0.01,6.27-0.03,8.94-1.52c2.19-1.23,3.76-3.3,5.25-5.31
	c10.72-14.38,21.44-28.76,32.15-43.13c-54.21-0.14-108.42-0.29-162.62-0.43c-9.83-0.03-19.84-0.03-29.22,2.9
	c-20.58,6.42-34.24,25.39-46.39,43.19c-17.59,25.78-35.17,51.55-52.76,77.33c-1.08,1.59-2.45,3.34-4.38,3.41
	c-2.03,0.07-3.54-1.78-4.71-3.44c-26.91-38.28-53.81-76.57-80.72-114.85c-1.93-2.75-3.98-5.61-6.96-7.17
	c-3.05-1.6-6.66-1.62-10.11-1.6c-10.03,0.05-20.07,0.11-30.1,0.16c-9.17,0.05-20.62-1.67-29.45,0.45c3.16,6.77,9,13.13,13.34,19.27
	c4.83,6.83,9.66,13.65,14.48,20.48c9.66,13.65,19.31,27.31,28.97,40.96c19.31,27.31,38.62,54.62,57.93,81.93
	c12.35,17.47,28.28,36.82,49.66,36.2c20.36-0.6,34.96-19.1,46.53-35.86C409.72,350.11,417.66,338.6,425.6,327.1z"/>
<g>
	<polyline points="638.01,275.21 480.45,275.21 419.57,360.71 419.57,398.31 611.6,396.07 650.99,346.83 481.79,346.38 
		481.79,319.08 605.34,318.63 640.25,275.21 	"/>
</g>
</svg>
